<?xml version="1.0" encoding="UTF-8" standalone="no"?>
<!-- Created with Inkscape (http://www.inkscape.org/) -->
<svg
   xmlns:svg="http://www.w3.org/2000/svg"
   xmlns="http://www.w3.org/2000/svg"
   version="1.0"
   width="241.53"
   height="54.27"
   id="svg2"
   xml:space="preserve"><defs
     id="defs5"><linearGradient
       x1="0"
       y1="0"
       x2="1"
       y2="0"
       id="linearGradient27"
       gradientUnits="userSpaceOnUse"
       gradientTransform="matrix(0,31.891708,31.891708,0,465.64139,47.128067)"
       spreadMethod="pad"><stop
         id="stop29"
         style="stop-color:#f6f7f7;stop-opacity:1"
         offset="0" /><stop
         id="stop31"
         style="stop-color:#d2d7da;stop-opacity:1"
         offset="0.30000299" /><stop
         id="stop33"
         style="stop-color:#d2d7da;stop-opacity:1"
         offset="0.30000299" /><stop
         id="stop35"
         style="stop-color:#f6f7f7;stop-opacity:1"
         offset="1" /></linearGradient><linearGradient
       x1="0"
       y1="0"
       x2="1"
       y2="0"
       id="linearGradient51"
       gradientUnits="userSpaceOnUse"
       gradientTransform="matrix(0,-44.889664,-44.889664,0,64.319626,85.381988)"
       spreadMethod="pad"><stop
         id="stop53"
         style="stop-color:#007348;stop-opacity:1"
         offset="0" /><stop
         id="stop55"
         style="stop-color:#8dc9ab;stop-opacity:1"
         offset="0.60000598" /><stop
         id="stop57"
         style="stop-color:#00925b;stop-opacity:1"
         offset="1" /></linearGradient><linearGradient
       x1="0"
       y1="0"
       x2="1"
       y2="0"
       id="linearGradient73"
       gradientUnits="userSpaceOnUse"
       gradientTransform="matrix(0,-50.443634,-50.443634,0,64.252747,94.89946)"
       spreadMethod="pad"><stop
         id="stop75"
         style="stop-color:#00925b;stop-opacity:1"
         offset="0" /><stop
         id="stop77"
         style="stop-color:#8dc9ab;stop-opacity:1"
         offset="0.30000299" /><stop
         id="stop79"
         style="stop-color:#00925b;stop-opacity:1"
         offset="0.55000299" /><stop
         id="stop81"
         style="stop-color:#007348;stop-opacity:1"
         offset="0.835159" /><stop
         id="stop83"
         style="stop-color:#009c6d;stop-opacity:1"
         offset="1" /></linearGradient><linearGradient
       x1="0"
       y1="0"
       x2="1"
       y2="0"
       id="linearGradient99"
       gradientUnits="userSpaceOnUse"
       gradientTransform="matrix(0,32.643005,32.643005,0,72.332718,47.241592)"
       spreadMethod="pad"><stop
         id="stop101"
         style="stop-color:#00a678;stop-opacity:1"
         offset="0" /><stop
         id="stop103"
         style="stop-color:#00925b;stop-opacity:1"
         offset="1" /></linearGradient><linearGradient
       x1="0"
       y1="0"
       x2="1"
       y2="0"
       id="linearGradient119"
       gradientUnits="userSpaceOnUse"
       gradientTransform="matrix(0,32.652862,32.652862,0,52.079544,47.239822)"
       spreadMethod="pad"><stop
         id="stop121"
         style="stop-color:#00a678;stop-opacity:1"
         offset="0" /><stop
         id="stop123"
         style="stop-color:#00925b;stop-opacity:1"
         offset="1" /></linearGradient><linearGradient
       x1="0"
       y1="0"
       x2="1"
       y2="0"
       id="linearGradient139"
       gradientUnits="userSpaceOnUse"
       gradientTransform="matrix(0,32.631393,32.631393,0,58.388626,47.247116)"
       spreadMethod="pad"><stop
         id="stop141"
         style="stop-color:#00a678;stop-opacity:1"
         offset="0" /><stop
         id="stop143"
         style="stop-color:#00925b;stop-opacity:1"
         offset="1" /></linearGradient><linearGradient
       x1="0"
       y1="0"
       x2="1"
       y2="0"
       id="linearGradient159"
       gradientUnits="userSpaceOnUse"
       gradientTransform="matrix(0,32.642639,32.642639,0,63.843491,47.242539)"
       spreadMethod="pad"><stop
         id="stop161"
         style="stop-color:#00a678;stop-opacity:1"
         offset="0" /><stop
         id="stop163"
         style="stop-color:#00925b;stop-opacity:1"
         offset="1" /></linearGradient><clipPath
       id="clipPath171"><path
         d="M 0,42.52 L 623.622,42.52 L 623.622,85.04 L 0,85.04 L 0,42.52 z"
         id="path173" /></clipPath><clipPath
       id="clipPath195"><path
         d="M 87.716,79.02 L 85.582,79.02 L 85.582,47.128 L 89.018,47.128 C 89.191,48.773 89.327,49.81 89.447,51.078 L 89.447,51.078 C 89.657,53.344 89.746,54.289 89.834,56.867 L 89.834,56.867 C 89.978,61.21 89.843,65.699 89.697,67.954 L 89.697,67.954 C 89.445,71.942 89.014,75.631 88.486,79.02 L 88.486,79.02 L 87.716,79.02 z"
         id="path197" /></clipPath><clipPath
       id="clipPath251"><path
         d="M 0,42.52 L 623.622,42.52 L 623.622,85.04 L 0,85.04 L 0,42.52 z"
         id="path253" /></clipPath><clipPath
       id="clipPath397"><path
         d="M 0,0 L 623.622,0 L 623.622,793.701 L 0,793.701 L 0,0 z"
         id="path399" /></clipPath><clipPath
       id="clipPath409"><path
         d="M 0,335.753 L 155.905,335.753 L 155.905,491.658 L 0,491.658 L 0,335.753 z"
         id="path411" /></clipPath><clipPath
       id="clipPath421"><path
         d="M 0,491.598 L 155.905,491.598 L 155.905,647.8 L 0,647.8 L 0,491.598 z"
         id="path423" /></clipPath><clipPath
       id="clipPath433"><path
         d="M -0.003,335.855 L 155.903,335.855 L 155.903,179.948 L -0.003,179.948 L -0.003,335.855 z"
         id="path435" /></clipPath><clipPath
       id="clipPath445"><path
         d="M 155.905,491.669 L 311.811,491.669 L 311.811,647.768 L 155.905,647.768 L 155.905,491.669 z"
         id="path447" /></clipPath><clipPath
       id="clipPath457"><path
         d="M 155.905,335.753 L 311.811,335.753 L 311.811,491.658 L 155.905,491.658 L 155.905,335.753 z"
         id="path459" /></clipPath><clipPath
       id="clipPath469"><path
         d="M 155.905,179.916 L 311.811,179.916 L 311.811,335.821 L 155.905,335.821 L 155.905,179.916 z"
         id="path471" /></clipPath><clipPath
       id="clipPath481"><path
         d="M 311.811,335.753 L 467.716,335.753 L 467.716,491.658 L 311.811,491.658 L 311.811,335.753 z"
         id="path483" /></clipPath><clipPath
       id="clipPath493"><path
         d="M 311.811,491.895 L 467.716,491.895 L 467.716,647.8 L 311.811,647.8 L 311.811,491.895 z"
         id="path495" /></clipPath><clipPath
       id="clipPath505"><path
         d="M 311.811,179.949 L 467.716,179.949 L 467.716,335.855 L 311.811,335.855 L 311.811,179.949 z"
         id="path507" /></clipPath><clipPath
       id="clipPath517"><path
         d="M 467.716,491.862 L 623.621,491.862 L 623.621,647.768 L 467.716,647.768 L 467.716,491.862 z"
         id="path519" /></clipPath><clipPath
       id="clipPath529"><path
         d="M 467.716,335.753 L 623.621,335.753 L 623.621,491.658 L 467.716,491.658 L 467.716,335.753 z"
         id="path531" /></clipPath><clipPath
       id="clipPath541"><path
         d="M 0,335.753 L 155.905,335.753 L 155.905,491.658 L 0,491.658 L 0,335.753 z"
         id="path543" /></clipPath><clipPath
       id="clipPath553"><path
         d="M 467.716,179.916 L 623.621,179.916 L 623.621,335.821 L 467.716,335.821 L 467.716,179.916 z"
         id="path555" /></clipPath></defs><g
     transform="matrix(1.25,0,0,-1.25,-53.8225,105.42125)"
     id="g11"><g
       transform="translate(0.8978651,-0.7182921)"
       id="g39"><g
         id="g41"><g
           id="g47"><g
             id="g49"><path
               d="M 43.058,42.52 L 85.582,42.52 L 85.582,84.337 L 43.058,84.337 L 43.058,42.52 z"
               id="path59"
               style="fill:url(#linearGradient51);stroke:none" /></g></g></g></g><g
       transform="translate(0.8978651,-0.7182921)"
       id="g61"><g
         id="g63"><g
           id="g69"><g
             id="g71"><path
               d="M 46.38,83.588 C 45.555,83.588 45.016,82.892 44.888,81.916 L 44.888,81.916 C 44.888,81.916 43.826,76.334 43.826,64.481 L 43.826,64.481 C 43.826,52.622 44.888,44.863 44.888,44.863 L 44.888,44.863 C 44.986,43.925 45.555,43.192 46.38,43.192 L 46.38,43.192 L 83.187,43.192 C 84.009,43.192 84.663,43.844 84.677,44.863 L 84.677,44.863 C 84.677,44.863 84.268,53.951 84.268,62.827 L 84.268,62.827 C 84.268,71.704 84.677,81.916 84.677,81.916 L 84.677,81.916 C 84.697,82.824 84.009,83.588 83.187,83.588 L 83.187,83.588 L 46.38,83.588 z"
               id="path85"
               style="fill:url(#linearGradient73);stroke:none" /></g></g></g></g><g
       transform="translate(0.8978651,-0.7182921)"
       id="g87"><g
         id="g89"><g
           id="g95"><g
             id="g97"><path
               d="M 67.051,79.322 C 68.212,78.835 72.878,76.312 73.45,75.506 L 73.45,75.506 C 71.102,75.196 66.497,73.997 64.017,72.79 L 64.017,72.79 L 63.872,72.498 C 66.607,73.1 70.43,73.415 73.066,73.558 L 73.066,73.558 C 72.082,72.114 71.43,71.426 69.933,69.792 L 69.933,69.792 L 69.794,69.475 C 72.647,71.189 73.45,71.312 76.08,72.852 L 76.08,72.852 C 77.073,71.383 77.312,67.998 77.35,65.315 L 77.35,65.315 C 78.206,67.017 79.245,73.429 78.813,74.588 L 78.813,74.588 C 80.557,75.785 80.793,76.749 80.793,76.749 L 80.793,76.749 C 79.194,76.611 78.312,76.584 77.45,76.312 L 77.45,76.312 C 75.407,77.565 70.722,79.218 67.186,79.618 L 67.186,79.618 L 67.051,79.322 z"
               id="path105"
               style="fill:url(#linearGradient99);stroke:none" /></g></g></g></g><g
       transform="translate(0.8978651,-0.7182921)"
       id="g107"><g
         id="g109"><g
           id="g115"><g
             id="g117"><path
               d="M 49.631,59.396 C 49.4,57.26 49.307,55.732 49.613,54.023 L 49.613,54.023 C 48.748,53.784 47.99,53.75 47.293,53.453 L 47.293,53.453 L 47.16,53.16 C 48.269,52.476 49.172,51.952 50.426,51.367 L 50.426,51.367 C 51.097,49.926 51.79,48.954 52.914,47.844 L 52.914,47.844 L 53.051,48.141 C 52.849,48.96 52.587,49.637 52.686,50.532 L 52.686,50.532 C 54.08,50.126 55.276,49.911 56.865,49.863 L 56.865,49.863 L 56.999,50.16 C 55.602,50.702 54.206,51.129 53.076,52.195 L 53.076,52.195 C 53.431,53.183 53.838,53.958 54.502,54.938 L 54.502,54.938 L 54.642,55.238 C 53.442,55.057 52.354,54.618 51.316,54.416 L 51.316,54.416 C 50.498,55.854 50.18,57.821 49.768,59.695 L 49.768,59.695 L 49.631,59.396 z"
               id="path125"
               style="fill:url(#linearGradient119);stroke:none" /></g></g></g></g><g
       transform="translate(0.8978651,-0.7182921)"
       id="g127"><g
         id="g129"><g
           id="g135"><g
             id="g137"><path
               d="M 56.751,69.145 C 56.751,69.145 55.853,69.231 54.367,69.186 L 54.367,69.186 C 53.111,69.128 51.238,69.016 50.327,68.748 L 50.327,68.748 L 50.194,68.456 C 51.642,68.394 53.626,68.005 54.385,67.243 L 54.385,67.243 C 54.385,67.243 52.187,65.26 50.008,60.92 L 50.008,60.92 C 50.008,60.92 53.958,64.626 55.67,65.545 L 55.67,65.545 C 55.67,65.545 56.566,62.561 57.188,61.067 L 57.188,61.067 L 57.325,61.365 C 57.497,62.325 57.926,64.929 58.654,66.522 L 58.654,66.522 C 58.654,66.522 58.912,66.679 60.175,66.802 L 60.175,66.802 C 61.441,66.915 63.231,66.982 66.63,66.385 L 66.63,66.385 L 66.768,66.677 C 65.992,67.135 62.899,68.461 59.625,68.902 L 59.625,68.902 L 59.732,68.902 C 60.181,70.224 60.743,71.221 60.743,71.221 L 60.743,71.221 C 60.049,71.123 58.073,70.199 56.751,69.145"
               id="path145"
               style="fill:url(#linearGradient139);stroke:none" /></g></g></g></g><g
       transform="translate(0.8978651,-0.7182921)"
       id="g147"><g
         id="g149"><g
           id="g155"><g
             id="g157"><path
               d="M 65.025,50.836 C 64.976,51.415 64.939,51.908 64.91,52.56 L 64.91,52.56 C 64.223,51.628 63.636,50.895 62.878,50.044 L 62.878,50.044 C 62.077,49.821 61.161,49.83 60.326,49.839 L 60.326,49.839 C 59.996,49.843 59.677,49.846 59.384,49.837 L 59.384,49.837 L 59.249,49.54 C 60.026,49.14 60.789,48.894 61.603,48.727 L 61.603,48.727 C 60.943,48.126 60.061,47.669 59.441,47.25 L 59.441,47.25 L 59.305,46.958 C 60.633,47.272 62.382,47.836 63.685,48.605 L 63.685,48.605 C 64.363,48.575 64.996,48.62 65.461,48.712 L 65.461,48.712 C 65.461,48.712 65.6,49.015 65.6,49.008 L 65.6,49.008 C 65.515,49.308 65.248,49.491 65.17,49.911 L 65.17,49.911 C 66.391,50.859 67.276,51.723 68.297,52.75 L 68.297,52.75 L 68.439,53.048 C 67.43,52.352 66.205,51.395 65.025,50.836"
               id="path165"
               style="fill:url(#linearGradient159);stroke:none" /></g></g></g></g><g
       transform="translate(0.8978651,-0.7182921)"
       id="g167"><g
         clip-path="url(#clipPath171)"
         id="g169"><g
           transform="translate(76.215,73.152)"
           id="g175"><path
             d="M 0,0 C -2.624,-1.543 -3.428,-1.673 -6.282,-3.381 C -4.62,-1.578 -4.042,-0.81 -3.014,0.699 C -5.645,0.559 -9.468,0.243 -12.198,-0.362 C -9.822,0.907 -5.111,2.318 -2.624,2.654 C -3.201,3.45 -7.868,5.978 -9.029,6.465 C -5.334,6.178 -0.818,4.797 1.372,3.458 C 2.233,3.727 3.129,3.74 4.732,3.883 C 4.324,3.182 4.306,2.776 2.733,1.733 C 3.169,0.568 2.128,-5.841 1.268,-7.538 C 1.237,-4.857 1.003,-1.471 0,0"
             id="path177"
             style="fill:#ffffff;fill-opacity:1;fill-rule:nonzero;stroke:none" /></g><g
           transform="translate(56.9987,50.1597)"
           id="g179"><path
             d="M 0,0 C -1.508,0.559 -2.594,1.21 -3.79,2.328 C -3.432,3.316 -3.023,4.088 -2.357,5.078 C -3.583,4.895 -4.487,4.757 -5.543,4.557 C -6.403,6.061 -6.793,7.514 -7.231,9.535 C -7.465,7.393 -7.554,5.863 -7.252,4.158 C -8.221,3.889 -8.908,3.653 -9.706,3.294 C -8.588,2.61 -7.685,2.083 -6.437,1.501 C -5.766,0.062 -5.073,-0.91 -3.947,-2.019 C -4.211,-1.074 -4.281,-0.323 -4.173,0.668 C -2.778,0.262 -1.584,0.049 0,0"
             id="path181"
             style="fill:#ffffff;fill-opacity:1;fill-rule:nonzero;stroke:none" /></g><g
           transform="translate(60.9249,71.4755)"
           id="g183"><path
             d="M 0,0 L 0,0 C -0.47,-0.61 -1.015,-1.747 -1.162,-2.275 C 2.725,-2.802 5.844,-4.798 5.844,-4.798 C 2.445,-4.195 0.654,-4.27 -0.614,-4.384 C -1.874,-4.503 -2.133,-4.651 -2.133,-4.651 C -3.05,-6.66 -3.6,-10.11 -3.6,-10.11 C -4.218,-8.619 -5.112,-5.633 -5.112,-5.633 C -6.827,-6.55 -10.771,-10.261 -10.771,-10.261 C -8.603,-5.917 -6.402,-3.941 -6.402,-3.941 C -7.159,-3.174 -9.145,-2.791 -10.598,-2.727 C -9.844,-2.419 -7.909,-2.059 -6.423,-1.991 C -4.935,-1.948 -4.035,-2.033 -4.035,-2.033 C -2.708,-0.985 -0.694,-0.103 0,0"
             id="path185"
             style="fill:#ffffff;fill-opacity:1;fill-rule:nonzero;stroke:none" /></g><g
           transform="translate(65.0479,52.8526)"
           id="g187"><path
             d="M 0,0 C -0.686,-0.931 -1.276,-1.662 -2.037,-2.513 C -3.345,-2.88 -4.389,-3.016 -5.664,-3.016 C -4.881,-3.42 -4.123,-3.662 -3.306,-3.833 C -4.123,-4.572 -4.813,-5.098 -5.606,-5.603 C -4.277,-5.288 -2.53,-4.724 -1.229,-3.955 C -0.549,-3.981 0.086,-3.937 0.552,-3.845 C 0.43,-3.451 0.356,-3.157 0.257,-2.644 C 1.482,-1.696 2.371,-0.837 3.391,0.195 C 2.306,-0.562 1.37,-1.127 0.114,-1.72 C 0.06,-1.142 0.029,-0.652 0,0"
             id="path189"
             style="fill:#ffffff;fill-opacity:1;fill-rule:nonzero;stroke:none" /></g></g></g><g
       transform="translate(0.8978651,-0.7182921)"
       id="g247"><g
         clip-path="url(#clipPath251)"
         id="g249"><g
           transform="translate(101.0941,68.3088)"
           id="g353"><path
             d="M 0,0 C 2.603,-0.022 3.556,-0.551 3.556,-1.968 C 3.556,-2.359 3.436,-2.706 3.206,-2.971 C 2.707,-3.57 1.736,-3.881 0.498,-3.803 L 0.434,-3.803 L -0.293,-5.697 L 0.434,-5.697 C 1.871,-5.656 3.12,-6.109 3.762,-6.893 C 4.058,-7.25 4.207,-7.68 4.207,-8.118 C 4.207,-9.6 2.902,-10.365 0.328,-10.365 C -0.105,-10.365 -0.81,-10.365 -1.248,-10.351 C -1.322,-8.373 -1.355,-5.697 -1.355,-4.89 C -1.355,-3.957 -1.294,-1.877 -1.248,-0.1 C -0.951,-0.039 -0.458,0 0,0 M -4.821,1.362 C -4.741,-0.043 -4.659,-3.595 -4.659,-4.89 C -4.659,-6.084 -4.66,-10.08 -4.869,-11.803 L -4.882,-11.938 L 1.361,-11.938 C 4.43,-11.938 7.675,-10.984 7.675,-8.258 C 7.675,-6.553 6.44,-5.292 4.13,-4.602 C 5.844,-4.142 6.985,-2.971 6.985,-1.632 C 6.985,0.593 4.43,1.43 2.028,1.488 L -4.857,1.488 L -4.821,1.362 z"
             id="path355"
             style="fill:#000000;fill-opacity:1;fill-rule:nonzero;stroke:none" /></g><g
           transform="translate(123.1783,69.7972)"
           id="g357"><path
             d="M 0,0 L -3.038,0 L -2.915,-3.386 C -2.856,-5.059 -2.799,-6.78 -2.681,-8.451 C -2.877,-7.927 -3.06,-7.658 -3.984,-6.314 C -3.987,-6.267 -7.145,-1.41 -8.241,-0.031 L -8.272,0 L -11.797,0 L -11.797,-0.126 C -11.685,-1.531 -11.64,-5.084 -11.64,-6.379 C -11.64,-7.573 -11.64,-11.568 -11.808,-13.291 L -11.839,-13.427 L -8.697,-13.427 L -8.697,-13.291 C -8.876,-10.014 -8.876,-6.707 -8.876,-3.499 C -8.767,-3.888 -8.628,-4.222 -8.133,-4.955 C -8.092,-5.042 -2.681,-12.919 -2.418,-13.37 L -2.391,-13.427 L 0.126,-13.427 L 0.122,-13.291 C -0.07,-11.568 -0.086,-7.573 -0.086,-6.379 C -0.086,-5.084 0,-1.531 0.082,-0.126 L 0.122,0 L 0,0 z"
             id="path359"
             style="fill:#000000;fill-opacity:1;fill-rule:nonzero;stroke:none" /></g><g
           transform="translate(131.4179,68.1769)"
           id="g361"><path
             d="M 0,0 C 1.751,0.032 2.973,-0.322 3.554,-1.057 C 3.82,-1.373 3.967,-1.79 3.967,-2.268 C 3.967,-4.211 1.781,-4.633 -0.046,-4.633 L -0.788,-4.591 C -0.788,-4.591 -0.963,-4.574 -1.093,-4.56 C -1.106,-4.111 -1.106,-3.519 -1.106,-2.855 C -1.106,-2.01 -1.106,-1.007 -1.067,-0.078 C -0.809,-0.044 -0.42,0 0,0 M -4.607,1.494 C -4.484,0.089 -4.437,-3.463 -4.437,-4.759 C -4.437,-5.952 -4.437,-9.948 -4.621,-11.671 L -4.621,-11.807 L -0.884,-11.807 L -0.9,-11.671 C -1.028,-10.431 -1.093,-8.067 -1.106,-6.26 C -0.931,-6.269 -0.4,-6.296 -0.4,-6.296 L 0.128,-6.307 C 5.044,-6.307 7.435,-5.006 7.435,-2.268 C 7.435,0.847 4.081,1.562 1.285,1.62 L -4.607,1.62 L -4.607,1.494 z"
             id="path363"
             style="fill:#000000;fill-opacity:1;fill-rule:nonzero;stroke:none" /></g><g
           transform="translate(150.5871,68.1769)"
           id="g365"><path
             d="M 0,0 C 1.755,0.032 2.976,-0.322 3.564,-1.057 C 3.834,-1.373 3.969,-1.79 3.969,-2.268 C 3.969,-4.211 1.786,-4.633 -0.018,-4.633 L -0.758,-4.591 C -0.758,-4.591 -0.954,-4.574 -1.069,-4.56 C -1.089,-4.111 -1.089,-3.516 -1.089,-2.855 C -1.089,-2.002 -1.089,-1.007 -1.054,-0.078 C -0.82,-0.044 -0.416,0 0,0 M -4.6,1.494 C -4.482,0.089 -4.414,-3.463 -4.414,-4.759 C -4.414,-5.952 -4.426,-9.948 -4.62,-11.671 L -4.62,-11.807 L -0.88,-11.807 L -0.902,-11.671 C -1.021,-10.431 -1.089,-8.067 -1.089,-6.26 C -0.915,-6.269 -0.416,-6.296 -0.416,-6.296 L 0.126,-6.307 C 5.04,-6.307 7.452,-5.006 7.452,-2.268 C 7.452,0.847 4.079,1.562 1.272,1.62 L -4.6,1.62 L -4.6,1.494 z"
             id="path367"
             style="fill:#000000;fill-opacity:1;fill-rule:nonzero;stroke:none" /></g><g
           transform="translate(163.947,65.843)"
           id="g369"><path
             d="M 0,0 C 0.297,-0.64 1.069,-2.425 1.937,-4.555 C 1.803,-4.561 1.635,-4.561 1.635,-4.561 L 0,-4.583 C 0,-4.583 -1.692,-4.561 -1.975,-4.555 C -1.269,-2.852 -0.57,-1.313 0,0 M -0.909,3.954 L -0.958,3.954 L -0.984,3.887 C -1.68,1.976 -6.163,-7.807 -6.873,-9.305 L -6.932,-9.473 L -3.749,-9.473 L -3.722,-9.399 C -3.442,-8.478 -3.065,-7.44 -2.655,-6.332 C -2.528,-6.332 0,-6.294 0,-6.294 L 2.199,-6.31 C 2.199,-6.31 2.553,-6.332 2.659,-6.332 C 3.225,-7.775 3.66,-8.863 3.849,-9.416 L 3.885,-9.473 L 7.574,-9.473 L 1.615,3.954 L 1.541,3.954 L -0.909,3.954 z"
             id="path371"
             style="fill:#000000;fill-opacity:1;fill-rule:nonzero;stroke:none" /></g><g
           transform="translate(173.0202,69.6712)"
           id="g373"><path
             d="M 0,0 C 0.107,-1.405 0.161,-4.958 0.161,-6.253 C 0.161,-7.447 0.161,-11.442 -0.043,-13.165 L -0.043,-13.301 L 3.717,-13.301 L 3.701,-13.165 C 3.502,-11.43 3.488,-7.447 3.488,-6.253 C 3.488,-5.32 3.517,-3.24 3.61,-1.558 C 3.896,-1.538 4.33,-1.494 4.624,-1.494 C 6.364,-1.462 7.593,-1.821 8.168,-2.551 C 8.444,-2.868 8.568,-3.294 8.568,-3.762 C 8.568,-5.313 7.121,-6.099 5.772,-6.169 C 5.32,-6.188 4.984,-6.13 4.984,-6.13 L 4.722,-6.085 L 4.866,-6.331 C 6.201,-8.278 8.197,-11.649 9.022,-13.244 L 9.045,-13.301 L 13.062,-13.301 L 12.962,-13.12 C 12.798,-12.894 10.182,-9.043 9.07,-7.398 C 9.07,-7.398 9.022,-7.351 8.973,-7.299 C 11.033,-6.68 12.028,-5.529 12.028,-3.762 C 12.028,-0.67 8.674,0.066 5.842,0.126 L -0.011,0.126 L 0,0 z"
             id="path375"
             style="fill:#000000;fill-opacity:1;fill-rule:nonzero;stroke:none" /></g><g
           transform="translate(191.3981,69.7972)"
           id="g377"><path
             d="M 0,0 L -3.581,0 L -3.561,-0.126 C -3.468,-1.531 -3.396,-5.084 -3.396,-6.379 C -3.396,-7.567 -3.412,-11.556 -3.581,-13.291 L -3.595,-13.427 L 0.117,-13.427 L 0.098,-13.291 C -0.045,-11.556 -0.089,-7.567 -0.089,-6.379 C -0.089,-5.084 0,-1.531 0.098,-0.126 L 0.098,0 L 0,0 z"
             id="path379"
             style="fill:#000000;fill-opacity:1;fill-rule:nonzero;stroke:none" /></g><g
           transform="translate(199.7183,68.3088)"
           id="g381"><path
             d="M 0,0 L 0,0 C 2.622,-0.022 3.576,-0.551 3.576,-1.968 C 3.576,-2.359 3.455,-2.706 3.217,-2.971 C 2.744,-3.57 1.735,-3.881 0.505,-3.803 L 0.444,-3.803 L -0.278,-5.697 L 0.444,-5.697 C 1.886,-5.656 3.124,-6.109 3.765,-6.893 C 4.078,-7.25 4.227,-7.68 4.227,-8.118 C 4.227,-9.6 2.916,-10.365 0.328,-10.365 C -0.087,-10.365 -0.787,-10.365 -1.225,-10.351 C -1.332,-8.373 -1.332,-5.697 -1.332,-4.89 C -1.332,-3.957 -1.299,-1.877 -1.225,-0.1 C -0.942,-0.039 -0.451,0 0,0 M -4.819,1.362 C -4.712,-0.043 -4.647,-3.595 -4.647,-4.89 C -4.647,-6.084 -4.647,-10.08 -4.835,-11.803 L -4.865,-11.938 L 1.388,-11.938 C 4.445,-11.938 7.701,-10.984 7.701,-8.258 C 7.701,-6.553 6.463,-5.292 4.133,-4.602 C 5.85,-4.142 7.005,-2.971 7.005,-1.632 C 7.005,0.593 4.445,1.43 2.065,1.488 L -4.835,1.488 L -4.819,1.362 z"
             id="path383"
             style="fill:#000000;fill-opacity:1;fill-rule:nonzero;stroke:none" /></g><g
           transform="translate(215.0678,65.8503)"
           id="g385"><path
             d="M 0,0 C 0.301,-0.625 1.067,-2.413 1.936,-4.548 C 1.804,-4.548 1.642,-4.562 1.642,-4.562 L 0,-4.584 C 0,-4.584 -1.712,-4.548 -1.966,-4.548 C -1.27,-2.833 -0.589,-1.305 0,0 M 1.545,3.947 L -0.969,3.947 L -0.984,3.887 C -1.735,1.854 -6.471,-8.445 -6.869,-9.299 L -6.938,-9.48 L -3.739,-9.48 L -3.719,-9.4 C -3.452,-8.48 -3.08,-7.447 -2.664,-6.317 C -2.562,-6.317 -0.02,-6.277 -0.02,-6.277 L 2.183,-6.312 C 2.183,-6.312 2.566,-6.317 2.651,-6.317 C 3.229,-7.76 3.658,-8.857 3.845,-9.4 L 3.879,-9.48 L 7.581,-9.48 L 1.626,3.947 L 1.545,3.947 z"
             id="path387"
             style="fill:#000000;fill-opacity:1;fill-rule:nonzero;stroke:none" /></g><g
           transform="translate(223.6965,66.3251)"
           id="g389"><path
             d="M 0,0 C 0,-2.359 2.363,-3.308 4.455,-4.176 C 6.084,-4.825 7.788,-5.508 7.788,-6.633 C 7.788,-6.973 7.721,-7.259 7.531,-7.46 C 7.139,-7.922 6.346,-8.116 5.087,-8.046 C 3.84,-7.996 2.434,-7.603 0.852,-6.874 L 0.233,-6.576 L 0.233,-7.098 L 0.233,-9.501 L 0.655,-9.609 L 0.901,-9.651 C 1.682,-9.845 3.191,-10.2 4.689,-10.2 C 8.632,-10.2 10.985,-8.627 10.985,-6.027 C 10.985,-3.585 8.556,-2.636 6.409,-1.78 C 4.828,-1.139 3.191,-0.504 3.191,0.543 C 3.191,0.845 3.191,1.726 5.234,1.726 C 6.739,1.726 8.202,1.113 9.033,0.795 L 9.791,0.478 L 9.786,0.982 L 9.786,3.414 L 9.033,3.55 C 8.267,3.705 6.989,3.959 5.673,3.959 C 2.271,3.959 0,2.353 0,0"
             id="path391"
             style="fill:#000000;fill-opacity:1;fill-rule:nonzero;stroke:none" /></g></g></g></g></svg>