<?xml version="1.0" encoding="UTF-8" standalone="no"?>
<!-- Created with Inkscape (http://www.inkscape.org/) -->

<svg
   xmlns:dc="http://purl.org/dc/elements/1.1/"
   xmlns:cc="http://creativecommons.org/ns#"
   xmlns:rdf="http://www.w3.org/1999/02/22-rdf-syntax-ns#"
   xmlns:svg="http://www.w3.org/2000/svg"
   xmlns="http://www.w3.org/2000/svg"
   xmlns:sodipodi="http://sodipodi.sourceforge.net/DTD/sodipodi-0.dtd"
   xmlns:inkscape="http://www.inkscape.org/namespaces/inkscape"
   width="314.90186"
   height="43.598518"
   viewBox="0 0 83.317778 11.53544"
   version="1.1"
   id="svg14013"
   inkscape:version="0.92.0 r15299"
   sodipodi:docname="avis budget group.svg">
  <defs
     id="defs14007">
    <clipPath
       id="clipPath12255"
       clipPathUnits="userSpaceOnUse">
      <path
         inkscape:connector-curvature="0"
         id="path12253"
         d="M 0,0 H 630 V 810 H 0 Z" />
    </clipPath>
  </defs>
  <sodipodi:namedview
     id="base"
     pagecolor="#ffffff"
     bordercolor="#666666"
     borderopacity="1.0"
     inkscape:pageopacity="0.0"
     inkscape:pageshadow="2"
     inkscape:zoom="2.8667234"
     inkscape:cx="156.45041"
     inkscape:cy="20.799372"
     inkscape:document-units="mm"
     inkscape:current-layer="layer1"
     showgrid="false"
     fit-margin-top="0"
     fit-margin-left="0"
     fit-margin-right="0"
     fit-margin-bottom="0"
     units="px"
     inkscape:window-width="1280"
     inkscape:window-height="744"
     inkscape:window-x="-4"
     inkscape:window-y="-4"
     inkscape:window-maximized="1" />
  <metadata
     id="metadata14010">
    <rdf:RDF>
      <cc:Work
         rdf:about="">
        <dc:format>image/svg+xml</dc:format>
        <dc:type
           rdf:resource="http://purl.org/dc/dcmitype/StillImage" />
        <dc:title></dc:title>
      </cc:Work>
    </rdf:RDF>
  </metadata>
  <g
     inkscape:label="Layer 1"
     inkscape:groupmode="layer"
     id="layer1"
     transform="translate(-74.266544,-164.72369)">
    <g
       id="g14178"
       transform="translate(0.2645808,-0.26457684)">
      <path
         d="m 87.023984,165.26028 c 0.287867,-0.055 0.505883,0.20779 0.702733,0.37712 0.181681,0.19544 0.45967,0.45861 0.315736,0.74824 -0.18168,0.31821 -0.44838,0.59655 -0.769761,0.77364 -0.212372,0.12171 -0.440972,-0.0406 -0.597252,-0.17956 -0.227189,-0.21837 -0.50412,-0.44838 -0.545042,-0.77964 0.05115,-0.27164 0.265642,-0.46637 0.455083,-0.65052 0.12947,-0.11712 0.267759,-0.23742 0.438503,-0.28928"
         style="fill:#d71c2e;fill-opacity:1;fill-rule:nonzero;stroke:none;stroke-width:0.35277778"
         id="path12259"
         inkscape:connector-curvature="0" />
      <path
         d="m 128.4136,166.79313 c 0.10442,-0.0145 0.21131,-0.008 0.31679,-0.009 0.005,0.39723 0.002,0.79481 0.002,1.19203 0.6477,0.005 1.2954,-0.003 1.94275,0.004 -0.003,0.31115 -0.002,0.62265 -0.001,0.93451 -0.64875,-0.001 -1.2961,-0.002 -1.9438,7.1e-4 0.009,0.97119 -0.0113,1.94239 0.0286,2.91323 0.0152,0.25894 -0.0367,0.55704 0.1323,0.77823 0.16686,0.13759 0.39793,0.12806 0.60183,0.14252 0.42263,0.002 0.84561,-0.0272 1.26507,-0.0794 0.0413,0.29492 0.10336,0.58561 0.14463,0.88053 -0.63782,0.21449 -1.30422,0.40781 -1.98472,0.35419 -0.48437,-0.0138 -1.04528,-0.0596 -1.38007,-0.45755 -0.28152,-0.3549 -0.31926,-0.83362 -0.32985,-1.26859 0.006,-1.08903 0.0268,-2.17629 0.0314,-3.26531 -0.2854,7e-4 -0.57009,-0.002 -0.85443,0.004 0.003,-0.19438 0.003,-0.38771 0.006,-0.58209 0.56515,-0.4325 1.12924,-0.86783 1.69298,-1.30386 0.10759,-0.0815 0.20778,-0.1778 0.33055,-0.23707"
         style="fill:#202f5c;fill-opacity:1;fill-rule:nonzero;stroke:none;stroke-width:0.35277778"
         id="path12263"
         inkscape:connector-curvature="0" />
      <path
         d="m 85.495468,168.06035 c 0.646994,-0.10901 1.298222,-0.2219 1.956506,-0.22331 0.121355,0.005 0.238477,0.0381 0.356658,0.066 0.07761,0.12524 0.13088,0.2667 0.121355,0.41734 -7.05e-4,1.41887 -0.0011,2.83704 0.02011,4.2552 0.0067,0.10478 0.0194,0.21096 0.05891,0.30868 0.05539,0.0748 0.153458,0.0868 0.236008,0.1136 0.225072,0.0564 0.450497,0.11183 0.678039,0.15769 -3.53e-4,0.21343 -0.01658,0.42686 -0.05045,0.63888 -1.114073,-0.018 -2.228145,0.007 -3.341864,-0.013 -0.01199,-0.20038 -0.02681,-0.40111 -0.02999,-0.60149 0.253647,-0.0787 0.516114,-0.13582 0.757061,-0.24941 0.149578,-0.0998 0.179211,-0.29387 0.184503,-0.46108 0.0194,-1.22626 0.04904,-2.45357 0.02928,-3.68089 -0.321733,-0.005 -0.643114,-0.005 -0.964847,7.1e-4 -0.01094,-0.24271 -0.0099,-0.48507 -0.01129,-0.72884"
         style="fill:#d71c2e;fill-opacity:1;fill-rule:nonzero;stroke:none;stroke-width:0.35277778"
         id="path12267"
         inkscape:connector-curvature="0" />
      <path
         d="m 90.833807,167.95466 c 0.836083,-0.21272 1.723672,-0.0871 2.526594,0.19614 0.104775,0.048 0.231423,0.0692 0.313973,0.15487 -0.04762,0.49354 -0.111478,0.98672 -0.191912,1.47603 -0.176388,-0.0208 -0.352072,-0.0402 -0.528813,-0.054 -0.08749,-0.34184 -0.26917,-0.68192 -0.594431,-0.84772 -0.366889,-0.18557 -0.805744,-0.22331 -1.202972,-0.12524 -0.28575,0.0702 -0.451556,0.38594 -0.395817,0.66604 0.10795,0.2787 0.407459,0.39794 0.657225,0.51859 0.702381,0.32103 1.496484,0.54398 2.029178,1.13665 0.389819,0.42121 0.432153,1.06468 0.250472,1.5882 -0.174978,0.51576 -0.639233,0.87948 -1.139825,1.0541 -1.095728,0.37324 -2.313516,0.20109 -3.359855,-0.24835 0.01905,-0.5327 0.06773,-1.06398 0.08714,-1.59667 0.198614,-0.002 0.396522,-0.003 0.595136,-3.6e-4 0.06138,0.41099 0.281164,0.81598 0.659342,1.01424 0.443441,0.22542 0.987777,0.25788 1.454855,0.0882 0.348192,-0.12135 0.466372,-0.67133 0.156986,-0.8957 -0.226483,-0.20002 -0.519994,-0.29704 -0.793397,-0.41451 -0.539397,-0.22896 -1.118306,-0.44627 -1.516239,-0.89782 -0.432153,-0.47519 -0.505883,-1.19909 -0.283986,-1.78682 0.213783,-0.53411 0.733072,-0.8883 1.27635,-1.02588"
         style="fill:#d71c2e;fill-opacity:1;fill-rule:nonzero;stroke:none;stroke-width:0.35277778"
         id="path12271"
         inkscape:connector-curvature="0" />
      <path
         d="m 102.00864,168.12021 c 0.47343,-0.0988 0.94615,-0.21061 1.4291,-0.25118 0.22543,-0.0131 0.46532,-0.0279 0.67522,0.0706 0.1658,0.0755 0.25082,0.26423 0.26176,0.43779 0.0152,1.19169 -0.0187,2.38408 0.0205,3.57611 0.0123,0.23389 0.036,0.49142 0.19615,0.67663 0.15416,0.18133 0.41486,0.19509 0.635,0.17075 0.46496,-0.0681 0.89852,-0.26212 1.3215,-0.45826 0.0564,-1.18393 0.0452,-2.36996 0.042,-3.55459 -0.2928,-0.006 -0.5849,0 -0.87665,-0.007 0,-0.22049 7e-4,-0.44027 0.002,-0.66075 0.52423,-0.0977 1.04387,-0.24166 1.58009,-0.25929 0.20426,-0.006 0.43322,0.012 0.59514,0.15345 0.12771,0.12348 0.15628,0.3108 0.15452,0.48084 0,0.78599 -0.001,1.57198 0,2.35797 0.0152,0.65264 0.0437,1.30351 0.061,1.95509 0.29492,0 0.58984,-0.003 0.88582,0.004 0.0286,0.21449 0.0706,0.42792 0.0896,0.64347 -0.58702,0.27023 -1.24284,0.48789 -1.89477,0.36724 -0.3623,-0.0695 -0.56339,-0.44133 -0.5775,-0.78528 -0.50518,0.43603 -1.09749,0.85337 -1.78999,0.87277 -0.50765,0.004 -1.06433,-0.0374 -1.47779,-0.36583 -0.32773,-0.27799 -0.41557,-0.73166 -0.42968,-1.14053 -0.003,-1.20544 0.003,-2.41089 -0.003,-3.61633 -0.30092,-0.006 -0.60184,0 -0.90206,-0.006 -0.006,-0.22084 -0.004,-0.44097 0.002,-0.66146"
         style="fill:#202f5c;fill-opacity:1;fill-rule:nonzero;stroke:none;stroke-width:0.35277778"
         id="path12275"
         inkscape:connector-curvature="0" />
      <path
         d="m 139.42602,168.68953 c 0.34996,-0.42122 0.84631,-0.72707 1.39453,-0.79692 0.31926,-0.0282 0.6477,-0.0293 0.96061,0.0564 -0.0445,0.17427 -0.085,0.3496 -0.1277,0.52458 -0.46567,-0.10689 -0.99131,-0.13335 -1.41182,0.12912 -0.3369,0.20461 -0.65158,0.49565 -0.8068,0.86077 -0.0145,1.44251 0.003,2.88537 -0.009,4.32823 -0.19897,-0.002 -0.39864,-0.004 -0.59761,-7e-4 -0.003,-1.93605 0,-3.87138 -0.002,-5.80708 0.19897,-0.008 0.3997,-0.0127 0.60043,-0.012 0.003,0.23954 0.001,0.47837 -0.001,0.71755"
         style="fill:#ee4420;fill-opacity:1;fill-rule:nonzero;stroke:none;stroke-width:0.35277778"
         id="path12279"
         inkscape:connector-curvature="0" />
      <path
         d="m 79.50135,167.98845 c 0.872419,-0.0243 1.745897,-0.013 2.618317,-0.006 -0.02223,0.24588 -0.02858,0.49247 -0.03246,0.73906 -0.225072,0.004 -0.450497,0.004 -0.675922,0.012 0.342194,1.05586 0.694266,2.1082 1.029758,3.16653 0.04304,0.10231 0.07056,0.21167 0.12312,0.31045 0.381352,-0.92393 0.757061,-1.84856 1.138061,-2.77248 0.09384,-0.19932 0.0829,-0.45226 -0.06526,-0.6216 -0.103717,-0.12312 -0.274814,-0.12806 -0.420159,-0.16051 -0.02046,-0.2219 -0.01975,-0.44485 0.0025,-0.6664 0.690739,-0.0236 1.383242,-0.0194 2.073628,-0.003 -0.01129,0.20743 -0.01693,0.41522 -0.04339,0.62194 -0.240947,0.22825 -0.415572,0.51718 -0.545747,0.82056 -0.625122,1.44287 -1.249186,2.88643 -1.874309,4.32965 -0.36583,0.11218 -0.732013,0.22119 -1.100666,0.32138 -0.58667,-1.61361 -1.173339,-3.22792 -1.76142,-4.84117 -0.07902,-0.27129 -0.32138,-0.43039 -0.507647,-0.62371 -0.0127,-0.20955 0.02258,-0.41875 0.04163,-0.62689"
         style="fill:#d71c2e;fill-opacity:1;fill-rule:nonzero;stroke:none;stroke-width:0.35277778"
         id="path12283"
         inkscape:connector-curvature="0" />
      <path
         d="m 147.28114,167.97187 c 0.19967,-3.5e-4 0.4004,0.004 0.60007,0.0123 v 3.04235 c 0.006,0.49954 -0.03,1.00542 0.0759,1.4979 0.0695,0.29421 0.24906,0.58667 0.5401,0.70449 0.38136,0.14323 0.81316,0.12947 1.19627,-0.004 0.5013,-0.15275 0.94227,-0.44273 1.39242,-0.70202 0.005,-1.5113 0.004,-3.02296 0.001,-4.53461 0.1838,-0.0109 0.36971,-0.0123 0.55562,-0.0123 0.009,1.93781 0.005,3.87633 0.002,5.81308 -0.18592,-7.1e-4 -0.37289,-0.003 -0.5581,-0.012 0.003,-0.22578 0.003,-0.4505 7.1e-4,-0.67592 -0.52599,0.35313 -1.08726,0.69532 -1.72579,0.78352 -0.50941,0.0621 -1.07703,0.0268 -1.4919,-0.30798 -0.34925,-0.28363 -0.49847,-0.7366 -0.55139,-1.16981 -0.0639,-0.5341 -0.0325,-1.07385 -0.0395,-1.61043 0.002,-0.94156 -0.004,-1.88313 0.002,-2.82469"
         style="fill:#ee4420;fill-opacity:1;fill-rule:nonzero;stroke:none;stroke-width:0.35277778"
         id="path12287"
         inkscape:connector-curvature="0" />
      <path
         d="m 146.18721,168.8887 c -0.21837,-0.38523 -0.57326,-0.68686 -0.98002,-0.85796 -0.50588,-0.19508 -1.06715,-0.22648 -1.59737,-0.12982 -0.55775,0.10231 -1.07068,0.42192 -1.409,0.87771 -0.50623,0.66993 -0.63888,1.54658 -0.61066,2.36749 0.0187,0.68475 0.18768,1.39559 0.62266,1.93993 0.35066,0.43004 0.8837,0.69109 1.43122,0.76165 0.6424,0.084 1.33526,0.001 1.88418,-0.36654 0.38735,-0.27164 0.68898,-0.66181 0.85302,-1.1049 0.19896,-0.50165 0.25082,-1.04704 0.24906,-1.58185 -0.0162,-0.6537 -0.10266,-1.3335 -0.44309,-1.90571 m -0.20214,2.58586 c -0.0688,0.55386 -0.24659,1.13771 -0.68686,1.5113 -0.43533,0.36371 -1.05057,0.43639 -1.59314,0.33514 -0.42263,-0.0759 -0.81457,-0.31891 -1.05587,-0.67628 -0.29421,-0.44097 -0.41204,-0.97578 -0.43709,-1.49824 -0.0275,-0.55774 0.037,-1.12677 0.24095,-1.64924 0.20426,-0.49953 0.61665,-0.94685 1.15781,-1.07103 0.4879,-0.12065 1.02659,-0.0713 1.46721,0.18062 0.36618,0.21943 0.60889,0.59761 0.74718,0.99413 0.20532,0.60007 0.22225,1.24777 0.15981,1.8736"
         style="fill:#ee4420;fill-opacity:1;fill-rule:nonzero;stroke:none;stroke-width:0.35277778"
         id="path12291"
         inkscape:connector-curvature="0" />
      <path
         d="m 156.86008,169.41399 c -0.14958,-0.4632 -0.43568,-0.89394 -0.84596,-1.16417 -0.41698,-0.28822 -0.94156,-0.38276 -1.44039,-0.35242 -0.5394,0.0381 -1.04705,0.26141 -1.49437,0.55492 -0.003,-0.16157 -0.009,-0.32244 -0.0208,-0.4826 -0.19474,0.007 -0.38876,0.007 -0.58138,0.0212 0.008,2.7104 0.005,5.42185 0.002,8.13153 0.19579,0.007 0.39229,0.007 0.58914,0.005 0.0166,-0.77258 -0.008,-1.54587 0.0138,-2.3181 0.47237,0.067 0.95109,0.0695 1.42699,0.0628 0.72284,-0.001 1.47179,-0.27799 1.92193,-0.86325 0.37677,-0.48049 0.54469,-1.0922 0.59655,-1.69263 0.0575,-0.63676 0.0356,-1.29222 -0.16722,-1.90253 m -0.57644,2.58057 c -0.16157,0.52282 -0.53622,0.99695 -1.05586,1.19556 -0.37042,0.16581 -0.78246,0.15628 -1.17793,0.14888 -0.3242,-0.0102 -0.64593,-0.0494 -0.96626,-0.097 -0.0226,-0.89076 -0.005,-1.78223 -0.0106,-2.67264 0.006,-0.51964 -0.0145,-1.03929 0.0155,-1.55787 0.36689,-0.19861 0.72673,-0.42933 1.14018,-0.52211 0.56974,-0.15099 1.24566,-0.0303 1.65382,0.41875 0.32844,0.36724 0.45509,0.86501 0.51365,1.34267 0.0596,0.58032 0.0766,1.18392 -0.11254,1.74378"
         style="fill:#ee4420;fill-opacity:1;fill-rule:nonzero;stroke:none;stroke-width:0.35277778"
         id="path12295"
         inkscape:connector-curvature="0" />
      <path
         d="m 126.24613,170.9847 c -0.002,-0.4258 0.0169,-0.8569 -0.0677,-1.27741 -0.0914,-0.51611 -0.32033,-1.03152 -0.73731,-1.3649 -0.47307,-0.38382 -1.1056,-0.49353 -1.69968,-0.48154 -0.70662,-7e-4 -1.40759,0.29669 -1.90077,0.80293 -0.66216,0.65687 -0.97649,1.61431 -0.93133,2.53682 0.0162,0.72954 0.15451,1.53776 0.71649,2.05669 0.57221,0.50871 1.38148,0.59902 2.11702,0.61631 0.82726,0.0346 1.66335,-0.14006 2.40065,-0.51929 -0.0818,-0.27552 -0.17462,-0.54751 -0.25964,-0.82268 -0.55139,0.121 -1.11549,0.1711 -1.67993,0.17568 -0.46108,-0.01 -0.96591,-0.0914 -1.30563,-0.43285 -0.34678,-0.33232 -0.44309,-0.83009 -0.4819,-1.28976 1.27671,-0.003 2.55306,-0.003 3.82976,0 m -3.84598,-0.73484 c 0.012,-0.51435 0.18097,-1.0795 0.63006,-1.3783 0.38629,-0.24059 0.97155,-0.2928 1.29963,0.073 0.31468,0.35383 0.34325,0.85654 0.35207,1.30669 -0.76094,-0.002 -1.52188,0 -2.28176,-0.001"
         style="fill:#202f5c;fill-opacity:1;fill-rule:nonzero;stroke:none;stroke-width:0.35277778"
         id="path12299"
         inkscape:connector-curvature="0" />
      <path
         d="m 101.61695,168.83064 c -0.1838,-0.34466 -0.50729,-0.60113 -0.87171,-0.73272 -0.864662,-0.32209 -1.849618,-0.26035 -2.692757,0.1009 -0.006,-0.72532 0.0042,-1.45027 -0.0046,-2.17488 0,-0.18803 -0.161925,-0.35595 -0.351366,-0.35525 -0.699206,-0.0328 -1.39065,0.1143 -2.071511,0.25506 -0.0056,0.21908 -0.0064,0.4385 -0.0018,0.65793 0.324555,0.005 0.649111,0.003 0.972961,0 0.0028,1.07915 0.0011,2.15794 0.0021,3.23709 0.01658,1.25942 -0.03175,2.51742 -0.04163,3.77649 0.652991,0.16827 1.323269,0.27199 1.99778,0.27834 0.781756,0.025 1.594553,-0.13617 2.230963,-0.61313 0.73343,-0.5207 1.15006,-1.39982 1.21038,-2.28565 0.0413,-0.72742 -0.0166,-1.49648 -0.37888,-2.14418 m -1.22731,2.48638 c -0.073,0.59019 -0.36619,1.24742 -0.964497,1.4605 -0.426156,0.17039 -0.887236,0.0667 -1.326445,0.0247 -0.0388,-1.25553 -0.05927,-2.51142 -0.04551,-3.76731 0.346075,-0.11748 0.711906,-0.16122 1.075267,-0.18944 0.418394,-0.0219 0.843138,0.20284 1.037875,0.5782 0.3182,0.57467 0.27905,1.26118 0.22331,1.89336"
         style="fill:#202f5c;fill-opacity:1;fill-rule:nonzero;stroke:none;stroke-width:0.35277778"
         id="path12303"
         inkscape:connector-curvature="0" />
      <path
         d="m 80.014854,172.80263 c -0.292453,0.007 -0.585258,0.005 -0.878064,0.001 -0.04939,-1.07174 -0.09349,-2.14418 -0.07479,-3.21769 0.01411,-0.46919 -0.112889,-0.98213 -0.492478,-1.28905 -0.471311,-0.38311 -1.111955,-0.43885 -1.696861,-0.45014 -0.759177,-0.0166 -1.521177,0.0977 -2.235552,0.35701 0.07055,0.34678 0.160514,0.68933 0.257175,1.02976 0.697089,-0.17216 1.423811,-0.26706 2.13995,-0.17039 0.234597,0.0339 0.491419,0.16192 0.542925,0.41627 0.05644,0.34361 0.02081,0.69533 0.02328,1.04352 -0.899583,0.0938 -1.866194,0.14041 -2.642306,0.65864 -0.658283,0.42827 -0.877358,1.37195 -0.523522,2.06128 0.264231,0.49777 0.876653,0.66534 1.404056,0.64346 0.6985,-0.012 1.310569,-0.42862 1.78823,-0.90664 0.03351,0.2219 0.05962,0.46673 0.217664,0.64065 0.143581,0.16968 0.372533,0.22719 0.584906,0.248 0.59443,0.0512 1.189566,-0.18909 1.646414,-0.55915 0.0092,-0.17075 -0.03387,-0.33867 -0.06103,-0.50659 M 77.59797,172.4318 c -0.49918,0.15134 -1.039283,0.41169 -1.563158,0.22507 -0.402872,-0.16757 -0.361244,-0.78246 -0.02611,-1.00189 0.46355,-0.32279 1.057627,-0.32385 1.597025,-0.40393 -0.0025,0.3937 0.0074,0.78705 -0.0078,1.18075"
         style="fill:#d71c2e;fill-opacity:1;fill-rule:nonzero;stroke:none;stroke-width:0.35277778"
         id="path12307"
         inkscape:connector-curvature="0" />
      <path
         d="m 138.30372,168.75624 c 0.002,-0.18803 0.002,-0.37606 -7.1e-4,-0.5648 -0.5207,-0.008 -1.0421,0.0187 -1.5621,-0.0123 -0.27975,-0.1771 -0.58349,-0.32385 -0.91581,-0.3676 -0.67345,-0.0995 -1.43933,-0.0261 -1.96638,0.44521 -0.52881,0.46672 -0.69603,1.22978 -0.59161,1.90641 0.0452,0.37606 0.24095,0.71896 0.51823,0.97366 -0.001,0.0208 -0.002,0.0642 -0.002,0.0857 -0.21661,0.37959 -0.38418,0.79869 -0.40499,1.23966 -0.0282,0.20249 0.0607,0.39017 0.18097,0.5461 0.0342,0.008 0.10196,0.0243 0.13582,0.0332 -0.30797,0.36054 -0.64276,0.72355 -0.76799,1.19415 -0.17286,0.50377 -0.037,1.08444 0.33866,1.46156 0.67522,0.59373 1.65206,0.63394 2.49838,0.49601 0.65793,-0.11995 1.29575,-0.43604 1.72508,-0.9585 0.30233,-0.34995 0.48683,-0.81456 0.44485,-1.28023 -0.0205,-0.46426 -0.3436,-0.86289 -0.73307,-1.08832 -0.47061,-0.26247 -1.02059,-0.33937 -1.55081,-0.33161 -0.53128,0.005 -1.06151,-0.006 -1.59279,0.007 -0.01,-0.38982 -0.004,-0.78035 -0.002,-1.17087 0.71226,0.32561 1.57339,0.38699 2.30011,0.0737 0.48683,-0.20779 0.87912,-0.63148 1.03082,-1.13983 0.14005,-0.51223 0.0882,-1.06962 -0.13089,-1.55293 0.34925,0.008 0.6985,0.005 1.04846,0.005 m -4.09963,4.38538 c 0.60537,0.002 1.2132,-0.0289 1.81751,0.0342 0.42439,0.067 0.90452,0.19403 1.15111,0.57961 0.20391,0.29669 0.1397,0.69921 -0.0494,0.98566 -0.37007,0.56833 -1.0414,0.87877 -1.70322,0.92252 -0.51223,0.0265 -1.05586,-0.0423 -1.49013,-0.33479 -0.33937,-0.23142 -0.51823,-0.67768 -0.4131,-1.07773 0.0914,-0.43815 0.38065,-0.79728 0.68721,-1.10949 m 2.19428,-2.39818 c -0.45438,0.42262 -1.15782,0.46849 -1.7205,0.26282 -0.40358,-0.1457 -0.69709,-0.52882 -0.75036,-0.95215 -0.055,-0.43921 -0.0138,-0.92816 0.26353,-1.29117 0.17709,-0.23883 0.45437,-0.38241 0.73977,-0.44944 0.41487,-0.0889 0.87419,-0.0614 1.24566,0.15911 0.75036,0.46602 0.83467,1.66052 0.2219,2.27083"
         style="fill:#ee4420;fill-opacity:1;fill-rule:nonzero;stroke:none;stroke-width:0.35277778"
         id="path12311"
         inkscape:connector-curvature="0" />
      <path
         d="m 121.15996,167.84261 c -0.56197,0.13441 -1.1236,0.26635 -1.68628,0.39582 -0.53128,-0.36478 -1.19733,-0.46144 -1.82809,-0.44768 -0.62759,-0.006 -1.28235,0.18415 -1.74237,0.62653 -0.52564,0.49672 -0.72602,1.29646 -0.52423,1.98755 0.10795,0.35807 0.35243,0.6657 0.66675,0.86678 -0.32879,0.45826 -0.62547,0.96591 -0.70379,1.53388 -0.28046,0.003 -0.56127,0.004 -0.84102,0 -0.0691,-2.165 -0.0497,-4.33106 -0.0296,-6.49535 -0.006,-0.16404 0.001,-0.34007 -0.0801,-0.48718 -0.10618,-0.15452 -0.31256,-0.15946 -0.48013,-0.16122 -0.63817,0.001 -1.27,0.1083 -1.89653,0.21907 -0.006,0.23354 -0.004,0.46673 -0.006,0.70062 0.32667,0.005 0.65334,0.002 0.98037,0.003 0.001,0.46567 0,0.93169 -3.5e-4,1.39735 -0.49672,-0.0476 -1.00295,-0.0861 -1.49684,0.006 -0.67486,0.11853 -1.30739,0.48154 -1.7332,1.02164 -0.55351,0.69109 -0.73624,1.61361 -0.66428,2.48179 0.0406,0.63571 0.19191,1.31269 0.65335,1.78224 0.44238,0.46778 1.12148,0.60783 1.74272,0.59408 0.60537,-0.012 1.11725,-0.41487 1.4859,-0.86325 0.01,0.34819 0.13511,0.80257 0.53657,0.8696 0.68863,0.072 1.37301,-0.17216 1.95792,-0.51965 0.12629,0.11889 0.27905,0.20285 0.44732,0.2466 -0.31573,0.17145 -0.60219,0.41768 -0.76482,0.74189 -0.23636,0.44591 -0.1083,1.05374 0.2981,1.35678 0.38241,0.29351 0.87348,0.38806 1.34232,0.43745 1.01952,0.0847 2.09973,-0.0275 2.99155,-0.56269 0.5207,-0.30797 0.96697,-0.81738 1.03082,-1.43827 0.0363,-0.43674 -0.01,-0.95074 -0.36936,-1.25166 -0.37606,-0.31573 -0.88935,-0.36794 -1.35996,-0.41204 -0.85725,-0.0469 -1.71556,-0.01 -2.57351,-0.0247 -0.004,-0.32527 -10e-4,-0.65159 -7.1e-4,-0.97685 0.72038,0.22719 1.51413,0.26565 2.23944,0.0367 0.5595,-0.17568 1.07773,-0.56868 1.29681,-1.12536 0.18768,-0.4579 0.15522,-0.97578 0.006,-1.43898 0.36689,-3.5e-4 0.73484,-0.003 1.10279,0.001 10e-4,-0.36654 -0.003,-0.73448 0.003,-1.10102 m -8.21937,4.57306 c -0.44097,0.18979 -0.94721,0.3369 -1.42205,0.1845 -0.33866,-0.0984 -0.60783,-0.36971 -0.74012,-0.69109 -0.18627,-0.42157 -0.15382,-0.895 -0.13335,-1.34338 0.0444,-0.56056 0.1471,-1.19345 0.60395,-1.57233 0.50236,-0.38029 1.16911,-0.23918 1.74061,-0.13864 -0.006,1.18674 0.0212,2.37702 -0.049,3.56094 m 3.6061,1.25871 c 0.6551,-7.1e-4 1.30986,-0.009 1.96567,0.004 0.28681,0.0208 0.65158,0.0476 0.80575,0.33443 0.14323,0.39864 -0.079,0.8703 -0.44944,1.05939 -0.36936,0.20744 -0.80857,0.1972 -1.21814,0.16722 -0.37289,-0.0332 -0.76341,-0.0977 -1.07456,-0.31856 -0.23143,-0.16087 -0.36619,-0.45685 -0.30904,-0.73589 0.0286,-0.19862 0.16581,-0.35313 0.27976,-0.51012 m 1.651,-2.89525 c -0.4445,0.23248 -1.10349,0.1397 -1.36067,-0.32632 -0.19473,-0.39052 -0.18591,-0.86078 -0.0543,-1.26964 0.0956,-0.29669 0.35596,-0.52811 0.66146,-0.58914 0.27552,-0.06 0.58879,-0.036 0.81739,0.14534 0.31538,0.23248 0.40851,0.65193 0.40922,1.02341 0.004,0.38241 -0.11818,0.81739 -0.47307,1.01635"
         style="fill:#202f5c;fill-opacity:1;fill-rule:nonzero;stroke:none;stroke-width:0.35277778"
         id="path12315"
         inkscape:connector-curvature="0" />
    </g>
  </g>
</svg>
