<?xml version="1.0" encoding="UTF-8"?>
<svg width="600" height="135" version="1.1" xmlns="http://www.w3.org/2000/svg">
 <path d="m547.28 66.73v-8.3387h-12.446v64.734h12.446v-33.551c0-3.285 0.16182-7.0095 0.66089-9.7669 1.3566-7.5675 7.8202-12.723 16.027-12.723 8.1987 0 12.854 4.3384 13.494 12.433 0.14962 1.696 0.13104 3.1745 0.13104 4.6134v38.994h12.436v-41.77c0-2.707-0.16183-6.0959-0.70795-8.4138-2.3306-9.7006-9.7886-16.183-22.55-16.183-7.8898 0-15.7 4.4128-19.072 9.9717zm-237.73-8.3387h-12.649v38.378c0 2.7958 0.18385 5.833 0.548 7.911 2.2999 13.046 12.518 20.669 27.041 20.669 14.527 0 24.748-7.6233 27.054-20.687 0.34973-2.0596 0.54404-5.1048 0.54404-7.8926v-38.378h-12.661v39.176c0 9.9906-4.0922 17.054-14.937 17.054-10.855 0-14.941-7.0631-14.941-17.054zm110.25 55.169h-0.50923c-4.0288 6.7633-13.017 11.341-22.167 11.341-19.79 0-31.299-15.247-31.299-34.056 0-18.231 12.719-33.839 31.293-33.839 9.2033 0 17.343 4.0482 22.174 11.484h0.50923v-59.241h11.941v113.88h-11.941zm-20.837 0.71934c13.803 0 21.028-10.788 21.028-23.524 0-12.587-7.3537-23.239-21.028-23.239-12.88 0-20.486 11.22-20.486 23.239 0 12.707 6.5373 23.524 20.486 23.524zm-152.76 0c13.832 0 21.032-10.788 21.032-23.524 0-12.587-7.3434-23.239-21.032-23.239-12.856 0-20.469 11.22-20.469 23.239 0 12.176 7.3373 23.524 20.469 23.524zm21.146-0.80727h-0.50334c-4.2477 6.7721-12.381 11.429-22.17 11.429-19.786 0-31.595-15.375-31.595-34.456 0-17.704 12.761-33.439 31.579-33.439 9.2362 0 17.138 3.8268 22.186 11.484h0.50334v-10.099h11.552v64.734h-11.552zm212.78 0.80727c13.821 0 21.026-10.788 21.026-23.524 0-12.587-7.3455-23.239-21.026-23.239-12.868 0-20.461 11.22-20.461 23.239 0 12.176 7.3168 23.524 20.461 23.524zm21.138-0.80727h-0.49939c-4.2436 6.7721-12.379 11.429-22.178 11.429-19.782 0-31.58-15.375-31.58-34.456 0-17.704 12.749-33.439 31.567-33.439 9.2464 0 17.148 3.8268 22.19 11.484h0.49939v-10.099h11.552v64.734h-11.552zm-323.89-13.49-18.537-41.591h-14.477l32.813 67.358 32.748-67.358h-13.875zm-41.861 23.143v-64.734h-12.444v64.734zm2.349-92.322c0-4.8323-3.8714-8.7064-8.5737-8.7064-4.7013 0-8.5815 3.8741-8.5815 8.7064 0 4.7052 3.8802 8.4402 8.5815 8.4402 4.7023 0 8.5737-3.735 8.5737-8.4402zm-28.948 41.51v3.8477c0 26.026-16.911 49.082-47.737 49.082-30.541 0-51.142-24.815-51.142-52.962 0-29.489 21.526-52.704 51.278-52.704 16.034 0 31.465 6.8344 41.765 19.782l-8.9108 8.6024c-7.3981-10.14-20.15-16.815-32.618-16.815-22.822 0-38.071 17.928-38.071 40.726 0 21.882 14.064 41.608 38.498 41.608 19.591 0 32.038-14.443 32.96-30.196h-28.016v-10.971h41.993" fill="#231f20"/>
</svg>
