<svg height="212.602916" viewBox="0 0 999.99989 452.39692" width="470.360434" xmlns="http://www.w3.org/2000/svg" xmlns:xlink="http://www.w3.org/1999/xlink"><clipPath id="a"><path d="m0 0h595.276v841.89h-595.276z"/></clipPath><clipPath id="b"><path d="m0 0h595.276v841.89h-595.276z"/></clipPath><g transform="translate(-374.73562 -57.030771)"><g fill="#ed1c2e"><path d="m0 0v-20.826h11.489v2.478h-7.93v18.348z" transform="matrix(6.6605658 0 0 -6.6605658 1298.2123 367.91133)"/><g clip-path="url(#b)" transform="matrix(6.6605658 0 0 -6.6605658 -191.67696 940.46091)"><path d="m0 0c1.103 0 2.095-.049 2.909-.354 2.328-.866 3.888-2.699 3.888-5.584 0-2.523-1.56-4.62-3.736-5.487l6.186-9.4h-4.403l-5.373 8.491h-3.682v-8.491h-3.808v20.825zm-4.211-9.924h2.562l.811-.008c2.343 0 3.649 1.293 3.649 3.946 0 1.505-.431 3.864-3.4 3.864h-3.622z" transform="translate(108.3137 85.9464)"/><path d="m0 0c1.152 0 2.012.043 2.699-.067 3.295-.522 5.097-2.887 5.097-6.425 0-2.303-1.125-4.011-2.747-5.188-1.234-.89-2.942-1.186-5.001-1.186h-3.197v-7.959h-3.754v20.825zm.305-10.587c3.182.099 3.678 2.546 3.678 4.309 0 3.662-2.097 4.112-3.935 4.112h-3.197v-8.421z" transform="translate(91.9427 85.9464)"/><path d="m0 0c1.151.582 2.4 1.522 3.01 2.311h4.648c1.797 0 3.184.577 4.26 1.347 2.062 1.476 3.253 3.965 3.253 7.329 0 2.929-1.714 5.767-3.247 6.585-1.656.888-1.881 1.039-4.349 1.039h-3.737v-10.931c0-2.329-.466-3.983-1.875-5.383-1.713-1.706-4.33-2.704-7.096-2.704-5.855 0-9.332 2.736-9.332 7.608v13.634h3.544v-13.171c0-.996.098-1.815.28-2.431.542-1.89 2.78-3.081 5.508-3.081 3.477 0 5.279 1.927 5.279 5.464v13.219l8.761-.01c1.845 0 3.448-.248 4.667-.788 3.368-1.498 5.615-4.575 5.615-9.305 0-5.244-3.142-10.732-11.655-10.732z" transform="translate(130.0135 65.1212)"/></g><path d="m1137.3124 506.53171h24.6375v-138.66631h-24.6375z"/><path d="m0 0h7.345v-18.467h3.705v18.467h6.776v2.34h-20.604v-15.353l-12.416 15.343h-3.137v-18.374h-10.05v7.123h8.678v2.412h-8.678v6.562h9.114v2.277h-12.743v-20.825h16.47v15.249l12.549-15.249h2.991z" transform="matrix(6.6605658 0 0 -6.6605658 1014.4196 383.52838)"/><path d="m0 0 8.791-20.819h-4.025l-2.233 5.528h-8.775l-2.325-5.528h-3.315l9.053 20.819zm-5.251-12.91h6.819l-3.452 8.296z" transform="matrix(6.6605658 0 0 -6.6605658 1240.5358 367.86337)"/></g><g clip-path="url(#a)" transform="matrix(6.6605658 0 0 -6.6605658 -191.67696 940.46091)"><path d="m0 0c.508 0 .391-.767 1.472-.767.619 0 .692.303 1.421.303 2.102 0 2.871-2.531 4.329-2.531.666 0 .729.443 1.43.443.264 0 .75-.151.942-.352.195-.19.61-.542 1.659-3.399.118-.313-.05-.439-.21-.439-.158 0-.486.148-1.22.917-.417.436-.764.234-2.585 1.375-.857.532-1.681 1.307-2.596 1.65-.922.338-2.457.472-3.04.612-.761.177-1.976.758-1.976 1.641 0 .292.172.547.374.547" fill="#68737a" transform="translate(149.6456 132.2864)"/><path d="m0 0c.423 0 .761-.662 1.206-1.103 1.042-.998 2.659-.354 3.884-1.581.313-.318.564-1.07.564-1.792 0-.727-.16-1.469-.533-1.469-.869 0-.306 1.408-2.062 2.453-1.761 1.049-2.053 1.097-2.775 1.826-.729.731-.762 1.013-.762 1.209 0 .193.137.457.478.457" fill="#68737a" transform="translate(160.0107 132.6359)"/><path d="m0 0c.43 0 .305-.602.792-1 .477-.4.791-.27 1.461-.936.3-.298.377-.498.377-.581 0-.084-.166-1.131-1.25-1.131-.234 0-.42.048-.588.401-.263.521-.145 1.249-.7 1.896-.479.559-.542.61-.542.935 0 .319.299.416.45.416" fill="#68737a" transform="translate(167.96 129.3397)"/><path d="m0 0c1.367-.385 2.032-.94 2.032-1.772 0-.849-.333-.898-.617-1.309-.215-.302-.43-.739-.403-2.031 0-.266-.082-.408-.277-.408-.187 0-.292.103-.292.29 0 .127.081.214.081.327 0 .109.037.726-.388 1.093-1.235 1.119-7.33 1.873-11.208 1.873-4.705 0-8.463-.997-9.52-.997-1.913 0-2.801.949-2.801 1.661 0 .709.416.838.416 1.176 0 .341-.111.392-.111.681 0 .292.23.873.464.873.347 0 .319-.39.652-.972.43-.726 1.321-1.686 3.005-1.686 1.499 0 2.767.57 4.982 1.076 2.712.62 4.856.917 6.992.917.978 0 4.642-.044 6.993-.792" fill="#ed1c2e" transform="translate(169.6888 123.9284)"/><g fill="#68737a"><path d="m0 0c.292 0 .47-.072.47-.268 0-.193-.305-.193-.483-.23-.176-.027-1.346-.242-1.854-1.061-.083-.132-.013-.257.092-.306.119-.05 1.441-.704 1.441-1.2 0-.477-1.02-.951-1.322-.951-.314 0-.425.369-.425.437 0 .134.291.291.291.426 0 .121-.245.305-.382.305-.153 0-.214-.07-.298-.408-.075-.343-.381-1.696-.451-2.528-.064-.845-.323-2.977-.323-3.244 0-.282-.044-1.035-.648-1.459-.597-.413-1.126-.712-1.126-.712s-.224-.147-.303-.147c-.082 0-.277.2-.514.395-.248.187-.504.206-.667.206-.312 0-.921-.485-1.372-.485-.449 0-1.375.499-1.375.784 0 .091.182.174.23.174.196 0 .549-.251.987-.251.429 0 .818.39 1.385.39.327 0 1.072-.166 1.66-.166.596 0 .826.152.922.325.097.179.292.409.292 1.09 0 .672-.437 2.953-.437 4.335 0 1.396.256 2.6.955 3.295.696.696 2.181 1.254 3.255 1.254" transform="translate(170.1318 116.2885)"/><path d="m0 0c.162 0 .341-.215.341-.78 0-.571-.403-4.374-1.425-7.01-1.017-2.63-1.301-2.651-2.197-4.164-.886-1.517-1.58-3.12-2.546-4.085-.372-.369-.921-.82-2.247-.82-1.317 0-3.213.282-5.343 1.145-2.13.852-4.246 2.118-5.52 3.387-.187.193-.083.373.241.193.328-.174 2.055-1.517 5.356-2.516 2.414-.731 3.075-.736 4.086-.736.973 0 2.013-.176 3.236 1.04 1.218 1.22 2.238 3.28 2.676 4.074.439.789 1.304 2.175 2.128 4.743.827 2.567.973 3.987 1.058 5.099.01.239.026.43.156.43" transform="translate(170.9908 112.3161)"/><path d="m0 0c.48 0 .86-.668 1.373-.668.512 0 .66.569.973.569.298 0 .38-.659.491-.879.111-.239.179-.355.179-.417 0-.066-.117-.153-.241-.153-.118 0-.36.215-.909.215-.402 0-.721-.263-.749-.327-.02-.062-.105-.044-.181.004-.168.121-.519.68-1.103.68-.312 0-.715-.203-1.151-.454-.43-.274-.757-.378-1.139-.378-.334 0-.784.134-.784.364 0 .131.18.214.326.214.339 0 .667-.077 1.422.353.514.306 1.075.877 1.493.877" transform="translate(162.7301 103.9723)"/><path d="m0 0c.257 0 .673-.507 1.942-.507 1.228 0 1.561.571 1.823.571.157 0 .189-.167.189-.231 0-.06-.477-1.636-1.77-1.636-.75 0-1.559.645-1.852.937-.289.291-.499.577-.499.699 0 .128.103.167.167.167" transform="translate(161.2523 101.7014)"/><path d="m0 0c.882 0 2.83-.196 2.83-.709 0-.284-.875-.018-1.547-.018-.681 0-.743-.037-.743-.086 0-.05.014-.083.068-.132.063-.048.508-.533.508-.665 0-.522-1.352-1.054-1.673-1.054-.172 0-.535.192-.535.422 0 .166.71.34.71.507 0 .175-.41.52-.784.52-.377 0-1.522-.803-1.673-.803-.158 0-.193.103-.193.226 0 .118.103.334.103.444 0 .369-.249.328-.249.621 0 .158.201.428 1.332.58 1.131.155 1.407.147 1.846.147" transform="translate(159.0477 115.0988)"/><path d="m0 0c.909 0 2.825-.147 3.124-.206.304-.057.366-.194.366-.279 0-.148-.097-.167-.45-.167-.653 0-2.306-.004-3.984-.52-2.635-.815-3.009-1.588-3.449-1.588-.131 0-.338.165-.338.341 0 .164.264.568.264.856 0 .217-.216.446-.216.577 0 .481 2.229.986 4.683.986" transform="translate(158.5189 117.5667)"/><path d="m0 0c1.346 0 1.885-1.317 1.885-2.885 0-.244-.117-.653-.337-.653-.313 0 .097.875-.702.875-.195 0-.568-.212-.895-.535-.333-.326-2.302-2.981-3.733-7.388-.713-2.205-1.034-3.586-1.034-4.766 0-.779.229-1.374.229-1.647 0-.483-.512-.169-.594-.026-.196.343-.564 1.311-.564 2.618 0 1.308.564 4.605 1.583 7.943.547 1.822 2.12 6.464 4.162 6.464" transform="translate(181.7944 118.3792)"/><path d="m0 0c.164 0 .303-.083.303-.182 0-.171-.656-.725-.94-1.032-.462-.485-.592-1.276-.979-1.276-.127 0-.202.145-.202.257s.049.213.049.294c0 .387-.499.289-.499.593 0 .244.715.714 1.024.909.307.189.973.437 1.244.437" transform="translate(177.8821 97.0876)"/><path d="m0 0c.21 0 .367-.068.367-.156 0-.196-.784-.659-.934-.811-.152-.155-.972-1.23-1.098-1.842-.131-.608-.324-.804-.499-.804-.373 0-.144.61-.422.804-.2.147-.729.079-.729.529 0 .292.485.763.935 1.166.452.402 1.397 1.114 2.38 1.114" transform="translate(177.3383 93.9372)"/><path d="m0 0c.202 0 .353-.103.45-.277.105-.171.059-.282.23-.441.167-.175.779-.265.779-.557 0-.285-.328-.285-.488-.402-.169-.117-.606-.303-.943-.887-.332-.584-.527-1.348-.591-2.396-.069-1.045-.407-2.071-.941-2.946-.562-.946-1.415-1.679-1.889-2.456-.393-.661-.257-1.396-.667-1.396-.393 0-.456 1.117-.456 1.505 0 .391.098 1.713 1.123 2.68 1.139 1.069 2.053 1.117 2.053 2.845 0 1.081-.13 1.422-.13 2.08 0 .668.229 2.648 1.47 2.648" transform="translate(174.1554 99.7642)"/></g><path d="m0 0c.671 0-.073-.273.99-1.334.5-.499.793-.716 1.964-.716.7 0 1.714.162 4.26 1.298 1.004.452 2.614.938 3.78.938 1.49 0 2.655-.724 3.482-1.325.827-.612 1.812-1.458 2.248-1.799.435-.34 1.088-.729 1.338-.825.244-.099.293-.235.215-.437-.069-.185-.359-.624-.428-.722-.078-.095-.37-.242-.537-.312-.172-.077-.824-.34-1.628-.949-.793-.606-2.129-1.333-3.746-1.333-1.631 0-4.122.659-5.502.659-.576 0-1.43-.318-2.034-.922-.229-.229-.421-.665-.583-.817-.157-.162-.679-.494-.865-.494-.196 0-.535.125-.535.311 0 .369.798.516.798 1.145 0 .63-.195.654-.195.944 0 .292.235.81.602 1.183.794.789 2.839 1.265 4.677 1.265 1.332 0 3.922-.582 5.69-.582.749 0 1.332.113 1.671.264.473.213.366.469.151.469-.192 0-.171-.094-.678-.094-.458 0-1.54.262-2.462.874-.916.615-2.388 1.449-3.804 1.449-1.427 0-2.44-.5-2.876-.674-1.049-.402-3.49-1.803-4.794-1.803-1.306 0-2.824.644-2.824 1.756 0 1.117 1.102 1.031 1.102 1.695 0 .116-.054.191-.054.324 0 .13.132.564.577.564" fill="#ed1c2e" transform="translate(129.2734 123.5432)"/><path d="m0 0c.283 0 .254-.311.437-.514.179-.215.255.051.512-.228.265-.277.134-.424.312-.584.172-.165.459-.145.465-.29.048-.597-.228-1.546-.228-3 0-1.025.178-2.198.534-3.23.143-.43-.166-.507-.318-.208-1.056 1.971-2.007 4.859-2.007 7.118 0 .536.083.936.293.936" fill="#68737a" transform="translate(145.3258 114.0354)"/><path d="m0 0c.132 0 .201-.09.201-.242 0-.159-.464-1.678-1.158-2.58-.687-.896-1.775-2.077-2.171-2.077-.181 0-.181.213-.214.285-.042.075-.174.244.091.46.269.217.304.337.304.478 0 .145-.118.34-.118.468 0 .121.103.406.274.509.168.094 1.223.626 1.812 1.34.592.715.77 1.359.979 1.359" fill="#68737a" transform="translate(143.9637 111.8772)"/><path d="m0 0c0 .193.006.369.006.549 0 2.464-.535 4.036-.868 4.036-.499 0-1.047-2.42-1.269-3.698-.791.244-1.35.285-1.791.285-1.233 0-1.469-.263-1.469-.584 0-.311.27-.783.578-1.082.748-.753 1.616-.734 2.433-.767-.131-1.535-.277-3.507-.277-4.198 0-.224.008-.583.019-1.015-.843-.443-2.24-1.212-2.704-1.678-.681-.68-.756-1.069-.756-1.525 0-1.663 1.477-1.589 1.477-2.735 0-.436-.29-.893.076-.893.437 0 .798.843.798 1.352 0 .506-.439 1.36-.439 1.885 0 .544.182 1.132.945 1.897.18.171.397.338.646.485.054-1.491.123-3.199.152-3.609.049-.678.078-2.252.416-2.252.339 0 .944 3.05 1.229 5.18.068.473.146 1.061.229 1.713.32.154.629.327.936.513 1.437.873 2.4 1.896 2.4 3.068 0 1.423-1.317 2.349-2.767 3.073m-.445-5.523c.132 1.167.263 2.442.348 3.622.705-.325 1.24-.747 1.24-1.623 0-1.049-1.151-1.771-1.588-1.999" fill="#68737a" transform="translate(145.0269 103.7899)"/></g></g></svg>